<svg fill="none" xmlns="http://www.w3.org/2000/svg" viewBox="0 0 86 30"><path fill-rule="evenodd" clip-rule="evenodd" d="M35.742 22.385h-.038c.017 0 .028.017.045.02l.011-.001-.018-.019Zm.007.02c-.174.003-.613.092-1.076.092-1.463 0-1.97-.669-1.97-1.542v-5.816h2.982c.17 0 .3-.148.3-.353v-3.158c0-.167-.15-.316-.3-.316h-2.981v-3.92c0-.149-.094-.242-.263-.242h-4.05c-.17 0-.263.093-.263.242v4.032s-2.044.501-2.175.52a.32.32 0 0 0-.244.316v2.526c0 .205.15.353.319.353h2.081v6.095c0 4.533 3.188 4.997 5.363 4.997.994 0 2.194-.315 2.382-.408.113-.038.169-.168.169-.298v-2.787a.33.33 0 0 0-.274-.332Zm44.436-4.088c0-3.363-1.369-3.81-2.813-3.66-1.124.074-2.025.631-2.025.631v6.54s.92.632 2.288.669c1.931.056 2.55-.632 2.55-4.18Zm4.558-.298c0 6.373-2.082 8.194-5.72 8.194-3.075 0-4.726-1.542-4.726-1.542s-.075.854-.168.966c-.057.111-.15.148-.263.148h-2.775c-.188 0-.357-.148-.357-.315l.038-20.642c0-.167.15-.316.319-.316h3.994c.169 0 .319.149.319.316v7.004s1.538-.985 3.788-.985l-.019-.037c2.25 0 5.57.836 5.57 7.21ZM68.39 11.312h-3.938c-.206 0-.319.149-.319.353v10.107s-1.031.725-2.438.725c-1.406 0-1.819-.632-1.819-2.025v-8.826a.327.327 0 0 0-.318-.315h-4.014a.327.327 0 0 0-.318.315v9.495c0 4.087 2.306 5.109 5.476 5.109 2.606 0 4.725-1.43 4.725-1.43s.094.724.15.835c.038.093.169.168.3.168h2.513a.303.303 0 0 0 .319-.316l.037-13.88c0-.166-.15-.315-.356-.315Zm-44.445-.019h-3.993c-.17 0-.32.168-.32.372v13.637c0 .372.245.502.563.502h3.6c.375 0 .47-.167.47-.502V11.61a.327.327 0 0 0-.32-.316Zm-1.968-6.28c-1.444 0-2.588 1.134-2.588 2.565 0 1.43 1.144 2.564 2.588 2.564a2.55 2.55 0 0 0 2.55-2.564 2.549 2.549 0 0 0-2.55-2.564ZM52.9 4.55h-3.956a.327.327 0 0 0-.32.316v7.599h-6.206v-7.6a.327.327 0 0 0-.32-.315h-3.994a.327.327 0 0 0-.318.316v20.642c0 .167.168.316.318.316H42.1a.327.327 0 0 0 .319-.316v-8.825h6.207l-.038 8.825c0 .167.15.316.319.316H52.9a.327.327 0 0 0 .32-.316V4.865a.327.327 0 0 0-.32-.316ZM17.514 13.69v10.665c0 .074-.019.204-.113.241 0 0-2.344 1.654-6.207 1.654-4.67 0-10.201-1.45-10.201-11 0-9.549 4.838-11.518 9.563-11.5 4.089 0 5.739.91 6.001 1.078.076.093.113.167.113.26l-.788 3.307c0 .167-.168.372-.375.316-.675-.204-1.688-.613-4.07-.613-2.756 0-5.719.78-5.719 6.93 0 6.15 2.813 6.874 4.838 6.874 1.726 0 2.345-.204 2.345-.204v-4.273h-2.757c-.206 0-.356-.149-.356-.316V13.69c0-.167.15-.316.356-.316h7.013c.207 0 .357.149.357.316Z" fill="#fff"/></svg>