<svg width="72" height="72" viewBox="0 0 72 72" fill="none" xmlns="http://www.w3.org/2000/svg">
<circle cx="36" cy="36" r="36" fill="#F6F8FA"/>
<path fill-rule="evenodd" clip-rule="evenodd" d="M29.873 27.26C29.9433 27.1785 30.0303 27.1131 30.1282 27.0683C30.226 27.0234 30.3323 27.0001 30.44 27H41.75C41.8599 27 41.9685 27.0242 42.068 27.0709C42.1676 27.1176 42.2556 27.1855 42.326 27.27L47.326 33.27C47.443 33.4104 47.5047 33.5886 47.4995 33.7713C47.4944 33.954 47.4227 34.1284 47.298 34.262L36.548 45.762C36.4778 45.8371 36.393 45.897 36.2987 45.9379C36.2044 45.9788 36.1028 45.9999 36 45.9999C35.8972 45.9999 35.7955 45.9788 35.7013 45.9379C35.607 45.897 35.5221 45.8371 35.452 45.762L24.702 34.262C24.5754 34.1268 24.5033 33.9495 24.4996 33.7643C24.4959 33.5791 24.5609 33.3991 24.682 33.259L29.872 27.259L29.873 27.26ZM30.783 28.5L26.258 33.73L36 44.153L45.75 33.723L41.399 28.5H30.783Z" fill="black"/>
</svg>
