<svg width="72" height="72" viewBox="0 0 72 72" fill="none" xmlns="http://www.w3.org/2000/svg">
<circle cx="36" cy="36" r="36" fill="#F6F8FA"/>
<path fill-rule="evenodd" clip-rule="evenodd" d="M40.168 26.924L28.51 37.061C28.4715 37.0944 28.444 37.1387 28.4314 37.1882C28.4188 37.2376 28.4216 37.2897 28.4395 37.3375C28.4573 37.3852 28.4894 37.4264 28.5313 37.4555C28.5732 37.4845 28.623 37.5 28.674 37.5H34.124C34.2478 37.4998 34.3697 37.5304 34.4788 37.5888C34.5879 37.6472 34.6808 37.7317 34.7494 37.8348C34.8179 37.9378 34.8598 38.0563 34.8715 38.1795C34.8831 38.3027 34.864 38.4269 34.816 38.541L32.257 44.607L43.472 34.939C43.5106 34.9056 43.538 34.8612 43.5506 34.8118C43.5632 34.7624 43.5604 34.7103 43.5426 34.6625C43.5247 34.6147 43.4927 34.5735 43.4508 34.5445C43.4088 34.5154 43.359 34.4999 43.308 34.5H38C37.8755 34.4999 37.753 34.4689 37.6435 34.4096C37.534 34.3504 37.441 34.2648 37.3728 34.1606C37.3046 34.0564 37.2635 33.9369 37.253 33.8128C37.2426 33.6888 37.2632 33.5641 37.313 33.45L40.168 26.924ZM39.716 25.329C39.9458 25.1287 40.2369 25.0127 40.5414 25C40.846 24.9873 41.1457 25.0788 41.3913 25.2593C41.6369 25.4398 41.8137 25.6986 41.8925 25.993C41.9714 26.2874 41.9476 26.5999 41.825 26.879L39.147 33H43.308C44.931 33 45.68 35.016 44.451 36.075L32.102 46.721C31.9058 46.8909 31.6578 46.9893 31.3985 47.0003C31.1392 47.0113 30.8838 46.9341 30.6739 46.7814C30.464 46.6287 30.3121 46.4094 30.2427 46.1593C30.1734 45.9092 30.1907 45.6429 30.292 45.404L32.996 39H28.674C27.055 39 26.304 36.992 27.526 35.93L39.716 25.33V25.329Z" fill="black"/>
</svg>
