<svg width="72" height="72" viewBox="0 0 72 72" fill="none" xmlns="http://www.w3.org/2000/svg">
<circle cx="36" cy="36" r="36" fill="#F6F8FA"/>
<path d="M40.53 33.78C40.6625 33.6378 40.7346 33.4497 40.7312 33.2554C40.7278 33.0611 40.6491 32.8758 40.5117 32.7383C40.3742 32.6009 40.1889 32.5222 39.9946 32.5188C39.8003 32.5154 39.6122 32.5875 39.47 32.72L35 37.19L33.03 35.22C32.8879 35.0875 32.6998 35.0154 32.5055 35.0188C32.3112 35.0222 32.1258 35.1009 31.9884 35.2383C31.851 35.3758 31.7723 35.5611 31.7689 35.7554C31.7654 35.9497 31.8375 36.1378 31.97 36.28L34.47 38.78C34.6107 38.9204 34.8013 38.9993 35 38.9993C35.1988 38.9993 35.3894 38.9204 35.53 38.78L40.53 33.78Z" fill="black"/>
<path fill-rule="evenodd" clip-rule="evenodd" d="M36.54 24.637C36.189 24.5231 35.811 24.5231 35.46 24.637L27.21 27.312C26.8584 27.426 26.552 27.6485 26.3346 27.9474C26.1173 28.2463 26.0001 28.6064 26 28.976V34C26 40.19 29.77 44.705 35.401 46.83C35.787 46.975 36.213 46.975 36.599 46.83C42.229 44.704 46 40.19 46 34V28.976C46 28.217 45.51 27.546 44.79 27.312L36.54 24.637ZM35.923 26.063C35.9731 26.0468 36.0269 26.0468 36.077 26.063L44.327 28.739C44.3771 28.7552 44.4209 28.7869 44.4519 28.8294C44.483 28.872 44.4998 28.9233 44.5 28.976V34C44.5 39.461 41.22 43.483 36.07 45.426C36.0249 45.4428 35.9751 45.4428 35.93 45.426C30.78 43.483 27.5 39.46 27.5 34V28.976C27.5 28.868 27.569 28.773 27.673 28.739L35.923 26.063Z" fill="black"/>
</svg>
