<svg width="72" height="72" viewBox="0 0 72 72" fill="none" xmlns="http://www.w3.org/2000/svg">
<circle cx="36" cy="36" r="36" fill="#F6F8FA"/>
<path d="M42.377 27.49C40.515 27.18 38.659 28.11 37.921 29.585C37.493 30.442 37.23 31.209 37.193 31.946C37.158 32.656 37.331 33.39 37.863 34.198C38.507 35.052 39.062 36.111 39.471 37.544C39.5003 37.6393 39.5103 37.7396 39.5004 37.8388C39.4905 37.9381 39.4609 38.0344 39.4133 38.122C39.3657 38.2097 39.3012 38.287 39.2233 38.3494C39.1455 38.4118 39.0561 38.4581 38.9601 38.4855C38.8642 38.5129 38.7638 38.5209 38.6648 38.509C38.5657 38.4971 38.4701 38.4656 38.3834 38.4163C38.2967 38.367 38.2207 38.3009 38.1598 38.2218C38.099 38.1428 38.0545 38.0524 38.029 37.956C37.676 36.72 37.209 35.821 36.657 35.091L36.649 35.081C36.119 34.383 35.509 33.839 34.842 33.303C34.6211 33.1265 34.3988 32.9518 34.175 32.779C33.024 31.884 31.71 30.863 30.471 29.16C29.881 29.447 29.223 29.958 28.665 30.614C28 31.394 27.568 32.274 27.507 33.06C27.753 33.42 28.192 33.67 28.753 33.775C29.396 33.895 30.031 33.79 30.386 33.593C30.4722 33.5424 30.5677 33.5095 30.6669 33.4963C30.766 33.4831 30.8668 33.4899 30.9632 33.5162C31.0597 33.5426 31.15 33.5879 31.2286 33.6497C31.3073 33.7114 31.3729 33.7882 31.4214 33.8756C31.47 33.9631 31.5005 34.0593 31.5113 34.1588C31.5221 34.2582 31.513 34.3588 31.4843 34.4546C31.4557 34.5504 31.4081 34.6395 31.3446 34.7167C31.281 34.7939 31.2026 34.8575 31.114 34.904C30.391 35.306 29.386 35.42 28.477 35.25C27.561 35.078 26.579 34.583 26.079 33.584L26 33.427V33.25C26 31.927 26.678 30.635 27.523 29.643C28.223 28.819 29.113 28.115 30 27.726V26.75C30 26.5511 30.079 26.3603 30.2197 26.2197C30.3603 26.079 30.5511 26 30.75 26C30.9489 26 31.1397 26.079 31.2803 26.2197C31.421 26.3603 31.5 26.5511 31.5 26.75V28.02C32.654 29.69 33.863 30.632 35.068 31.571C35.275 31.733 35.483 31.894 35.689 32.06C35.69 31.997 35.692 31.934 35.695 31.872C35.747 30.838 36.109 29.855 36.579 28.914C37.639 26.796 40.173 25.601 42.623 26.01C43.848 26.214 44.952 26.805 45.748 27.758C46.546 28.713 47 29.988 47 31.5C47 32.996 46.087 34.755 44.312 35.152C45.15 36.851 45.75 38.92 45.493 40.849C45.224 42.866 44.453 44.464 42.911 45.524C41.409 46.558 39.288 47 36.5 47H28.75C28.5511 47 28.3603 46.921 28.2197 46.7803C28.079 46.6397 28 46.4489 28 46.25C28 46.0511 28.079 45.8603 28.2197 45.7197C28.3603 45.579 28.5511 45.5 28.75 45.5H31.072C30.492 44.799 30.074 43.922 29.849 43.029C29.522 41.729 29.552 40.243 30.114 38.898C29.194 38.989 28.129 38.878 26.988 38.453C26.8957 38.4186 26.811 38.3663 26.7389 38.2992C26.6668 38.2321 26.6086 38.1514 26.5676 38.0618C26.5267 37.9722 26.5038 37.8754 26.5002 37.777C26.4967 37.6785 26.5126 37.5803 26.547 37.488C26.5814 37.3957 26.6337 37.311 26.7008 37.2389C26.7679 37.1668 26.8486 37.1086 26.9382 37.0676C27.0278 37.0267 27.1246 37.0038 27.223 37.0002C27.3215 36.9967 27.4197 37.0126 27.512 37.047C29.476 37.78 30.94 37.313 31.557 36.857C31.625 36.797 31.694 36.737 31.765 36.677C31.8828 36.5764 32.029 36.515 32.1834 36.5014C32.3377 36.4877 32.4924 36.5226 32.626 36.601C32.7709 36.6843 32.8836 36.8139 32.946 36.969C33.0016 37.1073 33.0148 37.259 32.984 37.4048C32.9532 37.5506 32.8797 37.684 32.773 37.788C32.696 37.864 32.613 37.938 32.521 38.009C31.199 39.243 30.901 41.064 31.303 42.663C31.741 44.4 32.877 45.496 33.993 45.5H36.5C39.174 45.5 40.929 45.067 42.06 44.288C43.154 43.536 43.775 42.384 44.006 40.651C44.242 38.883 43.561 36.806 42.599 35.122C42.5949 35.1154 42.5909 35.1087 42.587 35.102C41.9967 34.9282 41.4617 34.6044 41.034 34.162C40.478 33.597 40.144 32.919 40.022 32.432C39.9737 32.2389 40.0041 32.0346 40.1065 31.8639C40.2089 31.6932 40.3749 31.5703 40.568 31.522C40.7611 31.4737 40.9654 31.5041 41.1361 31.6065C41.3067 31.7089 41.4297 31.8749 41.478 32.068C41.535 32.299 41.738 32.738 42.104 33.111C42.454 33.468 42.926 33.734 43.547 33.734C44.719 33.734 45.5 32.676 45.5 31.5C45.5 30.295 45.143 29.373 44.597 28.72C44.05 28.066 43.279 27.64 42.377 27.49Z" fill="black"/>
</svg>
