<svg width="72" height="72" viewBox="0 0 72 72" fill="none" xmlns="http://www.w3.org/2000/svg">
<circle cx="36" cy="36" r="36" fill="#F6F8FA"/>
<path fill-rule="evenodd" clip-rule="evenodd" d="M36.077 26.563C36.0269 26.5468 35.9731 26.5468 35.923 26.563L27.673 29.24C27.6228 29.2561 27.579 29.2877 27.5479 29.3303C27.5168 29.3729 27.5 29.4242 27.5 29.477V34.5C27.5 39.961 30.78 43.983 35.93 45.926C35.9751 45.9428 36.0249 45.9428 36.07 45.926C41.22 43.983 44.5 39.961 44.5 34.5V29.476C44.4998 29.4233 44.483 29.372 44.4519 29.3294C44.4209 29.2869 44.3771 29.2552 44.327 29.239L36.077 26.563ZM35.46 25.137C35.811 25.0231 36.189 25.0231 36.54 25.137L44.79 27.812C45.1416 27.926 45.448 28.1485 45.6654 28.4474C45.8827 28.7463 45.9999 29.1064 46 29.476V34.5C46 40.69 42.23 45.205 36.599 47.33C36.2129 47.4754 35.7871 47.4754 35.401 47.33C29.771 45.204 26 40.69 26 34.5V29.476C26 28.716 26.49 28.046 27.21 27.812L35.46 25.137ZM37 36.232C37.3813 36.0118 37.6792 35.672 37.8477 35.2653C38.0162 34.8585 38.0457 34.4076 37.9318 33.9823C37.8178 33.5571 37.5667 33.1813 37.2175 32.9133C36.8682 32.6453 36.4403 32.5 36 32.5C35.5597 32.5 35.1318 32.6453 34.7825 32.9133C34.4333 33.1813 34.1822 33.5571 34.0682 33.9823C33.9543 34.4076 33.9838 34.8585 34.1523 35.2653C34.3208 35.672 34.6187 36.0118 35 36.232V39C35 39.2652 35.1054 39.5195 35.2929 39.7071C35.4804 39.8946 35.7348 40 36 40C36.2652 40 36.5196 39.8946 36.7071 39.7071C36.8946 39.5195 37 39.2652 37 39V36.232Z" fill="black"/>
</svg>
