<svg width="72" height="72" viewBox="0 0 72 72" fill="none" xmlns="http://www.w3.org/2000/svg">
<circle cx="36" cy="36" r="36" fill="#F6F8FA"/>
<path d="M26.5 26.75C26.5 26.5511 26.421 26.3603 26.2803 26.2197C26.1397 26.079 25.9489 26 25.75 26C25.5511 26 25.3603 26.079 25.2197 26.2197C25.079 26.3603 25 26.5511 25 26.75V45.25C25 45.664 25.336 46 25.75 46H44C44.1989 46 44.3897 45.921 44.5303 45.7803C44.671 45.6397 44.75 45.4489 44.75 45.25C44.75 45.0511 44.671 44.8603 44.5303 44.7197C44.3897 44.579 44.1989 44.5 44 44.5H26.5V26.75Z" fill="black"/>
<path d="M46.28 31.78C46.4125 31.6379 46.4846 31.4498 46.4811 31.2555C46.4777 31.0612 46.399 30.8758 46.2616 30.7384C46.1242 30.601 45.9388 30.5223 45.7445 30.5189C45.5502 30.5154 45.3621 30.5875 45.22 30.72L39.5 36.44L35.78 32.72C35.6393 32.5796 35.4487 32.5007 35.25 32.5007C35.0512 32.5007 34.8606 32.5796 34.72 32.72L28.72 38.72C28.6463 38.7887 28.5872 38.8715 28.5462 38.9635C28.5052 39.0555 28.4832 39.1548 28.4814 39.2555C28.4796 39.3562 28.4981 39.4562 28.5358 39.5496C28.5736 39.643 28.6297 39.7278 28.7009 39.7991C28.7722 39.8703 28.857 39.9264 28.9504 39.9642C29.0438 40.0019 29.1438 40.0204 29.2445 40.0186C29.3452 40.0168 29.4445 39.9948 29.5365 39.9538C29.6285 39.9128 29.7113 39.8537 29.78 39.78L35.25 34.31L38.97 38.03C39.1106 38.1705 39.3012 38.2494 39.5 38.2494C39.6987 38.2494 39.8893 38.1705 40.03 38.03L46.28 31.78Z" fill="black"/>
</svg>
