<svg width="72" height="72" viewBox="0 0 72 72" fill="none" xmlns="http://www.w3.org/2000/svg">
<circle cx="36" cy="36" r="36" fill="#F6F8FA"/>
<path d="M24 37C24 30.373 29.373 25 36 25C42.627 25 48 30.373 48 37V45.657C48 45.8559 47.921 46.0467 47.7803 46.1873C47.6397 46.328 47.4489 46.407 47.25 46.407C47.0511 46.407 46.8603 46.328 46.7197 46.1873C46.579 46.0467 46.5 45.8559 46.5 45.657V37C46.5 31.201 41.799 26.5 36 26.5C30.201 26.5 25.5 31.201 25.5 37V45.657C25.5 45.8559 25.421 46.0467 25.2803 46.1873C25.1397 46.328 24.9489 46.407 24.75 46.407C24.5511 46.407 24.3603 46.328 24.2197 46.1873C24.079 46.0467 24 45.8559 24 45.657V37Z" fill="black"/>
<path d="M32 43.75C32 43.5511 32.079 43.3603 32.2197 43.2197C32.3603 43.079 32.5511 43 32.75 43H39.25C39.4489 43 39.6397 43.079 39.7803 43.2197C39.921 43.3603 40 43.5511 40 43.75C40 43.9489 39.921 44.1397 39.7803 44.2803C39.6397 44.421 39.4489 44.5 39.25 44.5H32.75C32.5511 44.5 32.3603 44.421 32.2197 44.2803C32.079 44.1397 32 43.9489 32 43.75Z" fill="black"/>
<path fill-rule="evenodd" clip-rule="evenodd" d="M29.25 33.5C28.7859 33.5 28.3408 33.6844 28.0126 34.0126C27.6844 34.3408 27.5 34.7859 27.5 35.25V38.75C27.5 39.716 28.284 40.5 29.25 40.5H42.75C43.2141 40.5 43.6592 40.3156 43.9874 39.9874C44.3156 39.6592 44.5 39.2141 44.5 38.75V35.25C44.5 34.7859 44.3156 34.3408 43.9874 34.0126C43.6592 33.6844 43.2141 33.5 42.75 33.5H29.25ZM29.47 34.97C29.6106 34.8295 29.8012 34.7507 30 34.7507C30.1988 34.7507 30.3894 34.8295 30.53 34.97L33 37.44L35.47 34.97C35.6106 34.8295 35.8012 34.7507 36 34.7507C36.1988 34.7507 36.3894 34.8295 36.53 34.97L39 37.44L41.47 34.97C41.5387 34.8963 41.6215 34.8372 41.7135 34.7962C41.8055 34.7552 41.9048 34.7332 42.0055 34.7314C42.1062 34.7296 42.2062 34.7482 42.2996 34.7859C42.393 34.8236 42.4778 34.8797 42.549 34.951C42.6203 35.0222 42.6764 35.107 42.7141 35.2004C42.7518 35.2938 42.7704 35.3938 42.7686 35.4945C42.7668 35.5952 42.7448 35.6945 42.7038 35.7865C42.6628 35.8785 42.6037 35.9613 42.53 36.03L39.53 39.03C39.3894 39.1705 39.1988 39.2493 39 39.2493C38.8012 39.2493 38.6106 39.1705 38.47 39.03L36 36.56L33.53 39.03C33.3894 39.1705 33.1988 39.2493 33 39.2493C32.8012 39.2493 32.6106 39.1705 32.47 39.03L29.47 36.03C29.3295 35.8894 29.2507 35.6988 29.2507 35.5C29.2507 35.3012 29.3295 35.1106 29.47 34.97Z" fill="black"/>
</svg>
