<svg width="72" height="72" viewBox="0 0 72 72" fill="none" xmlns="http://www.w3.org/2000/svg">
<circle cx="36" cy="36" r="36" fill="#F6F8FA"/>
<path d="M36 31C36.1989 31 36.3897 31.079 36.5303 31.2197C36.671 31.3603 36.75 31.5511 36.75 31.75V36.25C36.75 36.4489 36.671 36.6397 36.5303 36.7803C36.3897 36.921 36.1989 37 36 37C35.8011 37 35.6103 36.921 35.4697 36.7803C35.329 36.6397 35.25 36.4489 35.25 36.25V31.75C35.25 31.5511 35.329 31.3603 35.4697 31.2197C35.6103 31.079 35.8011 31 36 31ZM36 41C36.2652 41 36.5196 40.8946 36.7071 40.7071C36.8946 40.5196 37 40.2652 37 40C37 39.7348 36.8946 39.4804 36.7071 39.2929C36.5196 39.1054 36.2652 39 36 39C35.7348 39 35.4804 39.1054 35.2929 39.2929C35.1054 39.4804 35 39.7348 35 40C35 40.2652 35.1054 40.5196 35.2929 40.7071C35.4804 40.8946 35.7348 41 36 41Z" fill="black"/>
<path fill-rule="evenodd" clip-rule="evenodd" d="M31.328 25.47C31.4685 25.3293 31.6592 25.2502 31.858 25.25H40.142C40.3408 25.2502 40.5315 25.3293 40.672 25.47L46.53 31.328C46.671 31.468 46.75 31.658 46.75 31.858V40.142C46.7498 40.3408 46.6707 40.5315 46.53 40.672L40.672 46.53C40.5315 46.6707 40.3408 46.7498 40.142 46.75H31.858C31.6592 46.7498 31.4685 46.6707 31.328 46.53L25.47 40.672C25.3293 40.5315 25.2502 40.3408 25.25 40.142V31.858C25.2502 31.6592 25.3293 31.4685 25.47 31.328L31.328 25.47ZM32.168 26.75L26.75 32.169V39.831L32.169 45.25H39.831L45.25 39.832V32.168L39.832 26.75H32.168Z" fill="black"/>
</svg>
